#!OML:ASF E:\Mandelcareful walks\Project 1\Capture day 1\Session 1\Subject1.ASF
:FULLY-SPECIFIED
:DEGREES
2228
root 41.8625 16.7505 5.9685 1089.23 55.4196 1087.66
lowerback -2.95307 0.0497305 -6.43972
upperback 1.16573 0.337165 -0.0463328
thorax 2.83037 0.0532438 3.58331
lowerneck -20.2382 -2.12875 -4.32413
upperneck 38.7558 -2.5856 4.43877
head 17.9662 -0.770731 2.38339
rclavicle 3.43028e-014 -1.98785e-015
rhumerus -31.4268 -12.9211 -76.5414
rradius 28.594
rwrist -7.91085
rhand -11.1485 -30.4306
rfingers 7.12502
rthumb 14.8774 -59.8764
lclavicle 3.43028e-014 -1.98785e-015
lhumerus -32.8767 16.5167 78.8683
lradius 17.5449
lwrist -8.03089
lhand -19.6058 -11.0097
lfingers 7.12502
lthumb 6.72035 18.8637
rfemur -1.24617 1.8972 11.1661
rtibia 41.4539
rfoot -8.70352 3.94031
rtoes 19.3487
lfemur -17.1314 -1.18207 -18.564
ltibia 25.3968
lfoot -11.5512 3.42943
ltoes -4.39239
2229
root 41.9434 16.7652 5.96672 1089.1 54.6624 1087.57
lowerback -3.00462 0.129115 -6.14088
upperback 1.49224 0.457617 -0.348227
thorax 3.18874 0.104779 3.11023
lowerneck -20.6712 -2.26481 -4.35168
upperneck 38.4058 -2.98473 4.87549
head 17.9219 -0.878773 2.49402
rclavicle 5.69518e-014 -8.34896e-015
rhumerus -31.1835 -14.4596 -76.4928
rradius 27.9119
rwrist -7.09583
rhand -11.3458 -30.4934
rfingers 7.12502
rthumb 14.6873 -59.9532
lclavicle 5.69518e-014 -8.34896e-015
lhumerus -31.5955 15.231 79.0343
lradius 17.4224
lwrist -7.99924
lhand -19.6156 -11.1094
lfingers 7.12502
lthumb 6.7109 18.7643
rfemur -2.46067 1.26222 11.058
rtibia 43.5131
rfoot -8.1717 2.69597
rtoes 18.45
lfemur -16.6039 -0.634238 -18.8007
ltibia 25.2883
lfoot -11.3343 3.66483
ltoes -4.42221
2230
root 42.0477 16.7947 5.97083 1089.33 53.7754 1088.08
lowerback -2.52319 -0.0379255 -6.8308
upperback 1.32387 0.216545 -0.265479
thorax 2.76648 -0.0125813 3.56745
lowerneck -20.4714 -2.07516 -4.22564
upperneck 38.4116 -2.61838 4.53013
head 17.8332 -0.769825 2.38367
rclavicle -1.2921e-014 4.96962e-015
rhumerus -31.7283 -14.2419 -76.141
rradius 27.6134
rwrist -6.99028
rhand -11.5428 -31.0247
rfingers 7.12502
rthumb 14.4975 -60.4982
lclavicle -1.2921e-014 4.96962e-015
lhumerus -31.6928 14.9936 79.0329
lradius 17.5014
lwrist -8.04619
lhand -19.7537 -11.2933
lfingers 7.12502
lthumb 6.57755 18.5845
rfemur -3.57373 0.354911 10.4321
rtibia 45.8546
rfoot -7.96002 1.46872
rtoes 18.5073
lfemur -15.5523 -0.308415 -19.4088
ltibia 24.5615
lfoot -11.027 3.99445
ltoes -4.69006
2231
root 42.1274 16.8084 5.97035 1089.45 53.0426 1088.29
lowerback -2.42788 -0.124802 -6.96656
upperback 1.42883 0.107703 -0.407501
thorax 2.83474 -0.072104 3.49067
lowerneck -20.4283 -1.97397 -4.08188
upperneck 38.1941 -2.49459 4.42132
head 17.6848 -0.72212 2.3215
rclavicle 1.45858e-014 1.78906e-014
rhumerus -31.8774 -14.4692 -76.1368
rradius 27.4328
rwrist -6.99147
rhand -11.4963 -31.8668
rfingers 7.12502
rthumb 14.5424 -61.3371
lclavicle 1.45858e-014 1.78906e-014
lhumerus -31.0619 14.5052 78.9073
lradius 17.4743
lwrist -8.41737
lhand -19.8109 -11.2185
lfingers 7.12502
lthumb 6.52241 18.6611
rfemur -4.92049 -0.63921 10.1156
rtibia 48.1687
rfoot -7.79147 -0.178335
rtoes 19.9429
lfemur -14.7807 0.406848 -19.8439
ltibia 23.8079
lfoot -11.1728 3.99333
ltoes -5.98262
2232
root 42.2089 16.8191 5.97256 1089.46 52.2781 1088.55
lowerback -2.29423 -0.172306 -7.17839
upperback 1.63695 0.0545896 -0.503673
thorax 2.98296 -0.111124 3.50663
lowerneck -20.5107 -1.93725 -4.19887
upperneck 37.9626 -2.44149 4.5086
head 17.5772 -0.712618 2.38267
rclavicle -1.21756e-015 4.57205e-015
rhumerus -31.8661 -14.6064 -76.1209
rradius 27.2733
rwrist -7.20175
rhand -11.7763 -32.4157
rfingers 7.12502
rthumb 14.2726 -61.9052
lclavicle -1.21756e-015 4.57205e-015
lhumerus -30.2658 14.1064 78.8378
lradius 17.3838
lwrist -9.19299
lhand -19.6642 -10.9324
lfingers 7.12502
lthumb 6.66395 18.9427
rfemur -5.91083 -1.48547 9.78137
rtibia 50.2493
rfoot -7.88636 -2.08448
rtoes 22.5559
lfemur -13.9182 0.937336 -20.2778
ltibia 23.1577
lfoot -11.23 4.21975
ltoes -6.54829
2233
root 42.2963 16.838 5.97723 1089.4 51.4391 1088.75
lowerback -1.95417 -0.510547 -7.61071
upperback 1.6427 -0.405331 -0.648945
thorax 2.85394 -0.342018 3.57676
lowerneck -20.3464 -1.54678 -3.52903
upperneck 37.8366 -2.05605 4.29952
head 17.422 -0.497352 2.2368
rclavicle -9.05713e-014 2.05742e-014
rhumerus -31.9615 -14.441 -76.4558
rradius 26.568
rwrist -6.95711
rhand -12.4194 -31.1144
rfingers 7.12502
rthumb 13.6528 -60.6466
lclavicle -9.05713e-014 2.05742e-014
lhumerus -30.0492 13.95 78.0703
lradius 17.397
lwrist -9.45782
lhand -19.5131 -10.9001
lfingers 7.12502
lthumb 6.80988 18.9704
rfemur -7.145 -2.35398 9.66269
rtibia 52.1912
rfoot -7.75756 -4.85114
rtoes 20.9184
lfemur -13.0086 1.14083 -20.6657
ltibia 22.5431
lfoot -11.2368 4.89024
ltoes -6.5979
2234
root 42.3664 16.8453 5.97608 1089.63 50.5938 1089.09
lowerback -1.54255 -0.635157 -8.0575
upperback 1.52996 -0.598842 -0.754571
thorax 2.53313 -0.430366 3.71225
lowerneck -20.2463 -1.43905 -3.35626
upperneck 37.7676 -1.94791 4.22414
head 17.3475 -0.445352 2.18823
rclavicle -2.04375e-014 2.64384e-014
rhumerus -32.155 -14.2158 -76.659
rradius 26.5056
rwrist -7.51401
rhand -12.7879 -32.3023
rfingers 7.12502
rthumb 13.2976 -61.8581
lclavicle -2.04375e-014 2.64384e-014
lhumerus -29.6246 13.3295 77.7791
lradius 17.1854
lwrist -9.4948
lhand -19.5438 -11.0529
lfingers 7.12502
lthumb 6.78025 18.8185
rfemur -8.52877 -3.11692 9.47952
rtibia 53.9631
rfoot -7.88798 -7.63512
rtoes 20.2818
lfemur -12.4674 1.30248 -21.1309
ltibia 22.0792
lfoot -11.3472 5.55242
ltoes -5.95751
2235
root 42.4707 16.86 5.99002 1089.57 49.9225 1089.05
lowerback -1.73245 -0.791298 -7.99267
upperback 1.57456 -0.787305 -0.777808
thorax 2.70877 -0.530533 3.64146
lowerneck -20.2168 -1.35247 -3.33453
upperneck 37.7577 -1.77452 4.07183
head 17.3208 -0.399555 2.14753
rclavicle -9.47954e-014 5.26779e-015
rhumerus -32.2356 -14.1632 -76.6768
rradius 26.3882
rwrist -7.79698
rhand -12.5997 -33.3563
rfingers 7.12502
rthumb 13.479 -62.9001
lclavicle -9.47954e-014 5.26779e-015
lhumerus -29.1367 12.8863 77.6381
lradius 16.9014
lwrist -9.51623
lhand -19.7991 -11.2957
lfingers 7.12502
lthumb 6.53374 18.5835
rfemur -9.46402 -4.45852 9.28375
rtibia 55.4556
rfoot -8.46099 -9.31646
rtoes 19.8692
lfemur -11.7417 1.61361 -21.4183
ltibia 21.6726
lfoot -11.6374 5.82345
ltoes -5.33391
2236
root 42.5582 16.8699 5.99738 1089.32 49.2359 1088.9
lowerback -1.59232 -0.912195 -7.92194
upperback 1.57642 -0.964632 -0.761425
thorax 2.65204 -0.615848 3.6129
lowerneck -20.1226 -1.2829 -3.42845
upperneck 37.7516 -1.64478 4.07635
head 17.2865 -0.364996 2.19032
rclavicle -1.22625e-014 8.24956e-015
rhumerus -32.7301 -14.2702 -76.3435
rradius 26.4103
rwrist -7.41521
rhand -11.9069 -33.115
rfingers 7.12502
rthumb 14.1467 -62.6134
lclavicle -1.22625e-014 8.24956e-015
lhumerus -28.7554 12.695 77.374
lradius 16.7354
lwrist -9.70763
lhand -19.8308 -11.4772
lfingers 7.12502
lthumb 6.50317 18.4029
rfemur -10.312 -5.60527 9.22926
rtibia 56.7286
rfoot -9.17245 -10.2848
rtoes 20.0172
lfemur -11.0209 1.85626 -21.6397
ltibia 21.3272
lfoot -11.7737 6.47741
ltoes -5.67914
2237
root 42.6392 16.8756 6.00015 1089.02 48.5657 1088.64
lowerback -1.37229 -1.03979 -7.80297
upperback 1.53385 -1.16251 -0.726722
thorax 2.50525 -0.706522 3.57803
lowerneck -19.9631 -1.19892 -3.48878
upperneck 37.6494 -1.55341 4.18518
head 17.1865 -0.326272 2.26254
rclavicle 7.90293e-014 8.74653e-015
rhumerus -33.638 -12.7251 -76.4163
rradius 27.3384
rwrist -9.00569
rhand -11.2043 -32.7378
rfingers 7.12502
rthumb 14.8237 -62.1876
lclavicle 7.90293e-014 8.74653e-015
lhumerus -28.4118 12.6513 76.9662
lradius 16.6544
lwrist -10.1715
lhand -19.6446 -11.5253
lfingers 7.12502
lthumb 6.68291 18.3493
rfemur -11.1186 -6.76341 9.29249
rtibia 57.754
rfoot -9.81226 -10.5982
rtoes 20.8118
lfemur -10.4476 1.88789 -21.7653
ltibia 21.0505
lfoot -11.9997 7.3857
ltoes -6.61014
2238
root 42.7216 16.8872 6.01384 1088.98 47.9177 1088.69
lowerback -1.26243 -1.22042 -8.0675
upperback 1.44944 -1.41181 -0.715116
thorax 2.39369 -0.829074 3.73083
lowerneck -19.5792 -1.07343 -3.38196
upperneck 37.6068 -1.39816 4.12618
head 17.0543 -0.260999 2.2416
rclavicle 8.61856e-014 -2.88238e-015
rhumerus -34.4535 -11.1641 -76.5732
rradius 27.7303
rwrist -9.85057
rhand -10.9541 -32.7464
rfingers 7.12502
rthumb 15.0647 -62.1783
lclavicle 8.61856e-014 -2.88238e-015
lhumerus -28.1239 11.9411 76.7454
lradius 16.4647
lwrist -9.88673
lhand -20.0047 -11.6694
lfingers 7.12502
lthumb 6.33532 18.2159
rfemur -11.9888 -8.1536 9.14277
rtibia 58.5335
rfoot -9.81885 -10.535
rtoes 20.2612
lfemur -10.0226 1.58859 -22.034
ltibia 20.9665
lfoot -12.6903 8.07396
ltoes -6.22941
